<mxfile host="app.diagrams.net" agent="Mozilla/5.0 (Windows NT 10.0; Win64; x64) AppleWebKit/537.36 (KHTML, like Gecko) Chrome/130.0.0.0 Safari/537.36" version="24.7.16">
  <diagram name="Page-1" id="knQnlQKxn2LO8gyCmNuh">
    <mxGraphModel dx="1247" dy="642" grid="0" gridSize="10" guides="1" tooltips="1" connect="1" arrows="1" fold="1" page="1" pageScale="1" pageWidth="850" pageHeight="1100" math="0" shadow="0">
      <root>
        <mxCell id="0" />
        <mxCell id="1" parent="0" />
        <mxCell id="wDW_D3Paap-r5LXoeVgV-3" value="" style="rounded=0;whiteSpace=wrap;html=1;fillColor=#CCCCCC;strokeColor=#616161;strokeWidth=2;" vertex="1" parent="1">
          <mxGeometry x="160" y="90" width="350" height="500" as="geometry" />
        </mxCell>
        <mxCell id="wDW_D3Paap-r5LXoeVgV-4" value="Processing Unit Module" style="rounded=0;whiteSpace=wrap;html=1;fillColor=#bac8d3;strokeColor=#23445d;fontSize=14;" vertex="1" parent="1">
          <mxGeometry x="285" y="140" width="100" height="250" as="geometry" />
        </mxCell>
        <mxCell id="wDW_D3Paap-r5LXoeVgV-32" style="edgeStyle=orthogonalEdgeStyle;rounded=0;orthogonalLoop=1;jettySize=auto;html=1;exitX=1;exitY=0.5;exitDx=0;exitDy=0;endArrow=block;endFill=1;startArrow=block;startFill=1;strokeWidth=2;" edge="1" parent="1" source="wDW_D3Paap-r5LXoeVgV-5">
          <mxGeometry relative="1" as="geometry">
            <mxPoint x="285" y="175" as="targetPoint" />
            <Array as="points">
              <mxPoint x="285" y="175" />
            </Array>
          </mxGeometry>
        </mxCell>
        <mxCell id="wDW_D3Paap-r5LXoeVgV-34" style="edgeStyle=orthogonalEdgeStyle;rounded=0;orthogonalLoop=1;jettySize=auto;html=1;exitX=0.5;exitY=1;exitDx=0;exitDy=0;endArrow=none;endFill=0;startArrow=block;startFill=1;strokeColor=#CC6600;strokeWidth=2;" edge="1" parent="1" source="wDW_D3Paap-r5LXoeVgV-5">
          <mxGeometry relative="1" as="geometry">
            <mxPoint x="270" y="380" as="targetPoint" />
            <Array as="points">
              <mxPoint x="215" y="250" />
              <mxPoint x="270" y="250" />
            </Array>
          </mxGeometry>
        </mxCell>
        <mxCell id="wDW_D3Paap-r5LXoeVgV-5" value="COM Module" style="rounded=0;whiteSpace=wrap;html=1;fillColor=#fff2cc;strokeColor=#BDA04C;fontSize=13;" vertex="1" parent="1">
          <mxGeometry x="180" y="140" width="70" height="70" as="geometry" />
        </mxCell>
        <mxCell id="wDW_D3Paap-r5LXoeVgV-15" value="Interface Module" style="rounded=0;whiteSpace=wrap;html=1;fillColor=#C9DBC8;strokeColor=#6F9957;fontSize=13;" vertex="1" parent="1">
          <mxGeometry x="180" y="280" width="70" height="70" as="geometry" />
        </mxCell>
        <mxCell id="wDW_D3Paap-r5LXoeVgV-35" style="edgeStyle=orthogonalEdgeStyle;rounded=0;orthogonalLoop=1;jettySize=auto;html=1;exitX=0.5;exitY=1;exitDx=0;exitDy=0;endArrow=none;endFill=0;startArrow=block;startFill=1;strokeColor=#CC6600;strokeWidth=2;" edge="1" parent="1" source="wDW_D3Paap-r5LXoeVgV-18">
          <mxGeometry relative="1" as="geometry">
            <mxPoint x="400" y="380" as="targetPoint" />
            <Array as="points">
              <mxPoint x="455" y="250" />
              <mxPoint x="400" y="250" />
            </Array>
          </mxGeometry>
        </mxCell>
        <mxCell id="wDW_D3Paap-r5LXoeVgV-18" value="Interface Module" style="rounded=0;whiteSpace=wrap;html=1;fillColor=#C9DBC8;strokeColor=#6F9957;fontSize=13;" vertex="1" parent="1">
          <mxGeometry x="420" y="140" width="70" height="70" as="geometry" />
        </mxCell>
        <mxCell id="wDW_D3Paap-r5LXoeVgV-33" style="edgeStyle=orthogonalEdgeStyle;rounded=0;orthogonalLoop=1;jettySize=auto;html=1;exitX=0.5;exitY=1;exitDx=0;exitDy=0;entryX=0.5;entryY=1;entryDx=0;entryDy=0;startArrow=block;startFill=1;endArrow=block;endFill=1;strokeColor=#CC6600;strokeWidth=2;" edge="1" parent="1" source="wDW_D3Paap-r5LXoeVgV-19" target="wDW_D3Paap-r5LXoeVgV-15">
          <mxGeometry relative="1" as="geometry">
            <Array as="points">
              <mxPoint x="455" y="380" />
              <mxPoint x="400" y="380" />
              <mxPoint x="400" y="440" />
              <mxPoint x="270" y="440" />
              <mxPoint x="270" y="380" />
              <mxPoint x="215" y="380" />
            </Array>
          </mxGeometry>
        </mxCell>
        <mxCell id="wDW_D3Paap-r5LXoeVgV-19" value="Interface Module" style="rounded=0;whiteSpace=wrap;html=1;fillColor=#C9DBC8;strokeColor=#6F9957;fontSize=13;" vertex="1" parent="1">
          <mxGeometry x="420" y="280" width="70" height="70" as="geometry" />
        </mxCell>
        <mxCell id="wDW_D3Paap-r5LXoeVgV-27" style="edgeStyle=orthogonalEdgeStyle;rounded=0;orthogonalLoop=1;jettySize=auto;html=1;exitX=0.5;exitY=0;exitDx=0;exitDy=0;entryX=0.75;entryY=1;entryDx=0;entryDy=0;endArrow=block;endFill=1;startArrow=block;startFill=1;strokeWidth=2;" edge="1" parent="1" source="wDW_D3Paap-r5LXoeVgV-21" target="wDW_D3Paap-r5LXoeVgV-4">
          <mxGeometry relative="1" as="geometry">
            <Array as="points">
              <mxPoint x="455" y="410" />
              <mxPoint x="360" y="410" />
            </Array>
          </mxGeometry>
        </mxCell>
        <mxCell id="wDW_D3Paap-r5LXoeVgV-21" value="COM Module" style="rounded=0;whiteSpace=wrap;html=1;fillColor=#fff2cc;strokeColor=#BDA04C;fontSize=13;" vertex="1" parent="1">
          <mxGeometry x="420" y="430" width="70" height="70" as="geometry" />
        </mxCell>
        <mxCell id="wDW_D3Paap-r5LXoeVgV-26" style="edgeStyle=orthogonalEdgeStyle;rounded=0;orthogonalLoop=1;jettySize=auto;html=1;exitX=1;exitY=0.5;exitDx=0;exitDy=0;entryX=0;entryY=0.5;entryDx=0;entryDy=0;endArrow=block;endFill=1;startArrow=block;startFill=1;strokeColor=#CC6600;strokeWidth=2;" edge="1" parent="1" source="wDW_D3Paap-r5LXoeVgV-22" target="wDW_D3Paap-r5LXoeVgV-21">
          <mxGeometry relative="1" as="geometry" />
        </mxCell>
        <mxCell id="wDW_D3Paap-r5LXoeVgV-28" style="edgeStyle=orthogonalEdgeStyle;rounded=0;orthogonalLoop=1;jettySize=auto;html=1;exitX=0.5;exitY=0;exitDx=0;exitDy=0;entryX=0.25;entryY=1;entryDx=0;entryDy=0;endArrow=block;endFill=1;startArrow=block;startFill=1;strokeWidth=2;" edge="1" parent="1" source="wDW_D3Paap-r5LXoeVgV-22" target="wDW_D3Paap-r5LXoeVgV-4">
          <mxGeometry relative="1" as="geometry">
            <Array as="points">
              <mxPoint x="215" y="410" />
              <mxPoint x="310" y="410" />
            </Array>
          </mxGeometry>
        </mxCell>
        <mxCell id="wDW_D3Paap-r5LXoeVgV-22" value="COM Module" style="rounded=0;whiteSpace=wrap;html=1;fillColor=#fff2cc;strokeColor=#BDA04C;fontSize=13;" vertex="1" parent="1">
          <mxGeometry x="180" y="430" width="70" height="70" as="geometry" />
        </mxCell>
        <mxCell id="wDW_D3Paap-r5LXoeVgV-25" style="edgeStyle=orthogonalEdgeStyle;rounded=0;orthogonalLoop=1;jettySize=auto;html=1;exitX=0.5;exitY=0;exitDx=0;exitDy=0;entryX=0.5;entryY=1;entryDx=0;entryDy=0;strokeColor=#CC6600;strokeWidth=2;" edge="1" parent="1" source="wDW_D3Paap-r5LXoeVgV-23" target="wDW_D3Paap-r5LXoeVgV-4">
          <mxGeometry relative="1" as="geometry" />
        </mxCell>
        <mxCell id="wDW_D3Paap-r5LXoeVgV-23" value="Power Supply Module" style="rounded=0;whiteSpace=wrap;html=1;fillColor=#EDC5C3;strokeColor=#b85450;fontSize=13;" vertex="1" parent="1">
          <mxGeometry x="290" y="490" width="90" height="90" as="geometry" />
        </mxCell>
        <mxCell id="wDW_D3Paap-r5LXoeVgV-24" value="&lt;font style=&quot;font-size: 15px;&quot;&gt;Proposed Modular Controller&lt;/font&gt;" style="text;html=1;align=center;verticalAlign=middle;whiteSpace=wrap;rounded=1;fillColor=default;strokeColor=#5C5C5C;strokeWidth=1;fontSize=15;" vertex="1" parent="1">
          <mxGeometry x="213.75" y="100" width="242.5" height="30" as="geometry" />
        </mxCell>
        <mxCell id="wDW_D3Paap-r5LXoeVgV-31" style="edgeStyle=orthogonalEdgeStyle;rounded=0;orthogonalLoop=1;jettySize=auto;html=1;exitX=0;exitY=0.5;exitDx=0;exitDy=0;endArrow=block;endFill=1;strokeWidth=2;" edge="1" parent="1" source="wDW_D3Paap-r5LXoeVgV-18">
          <mxGeometry relative="1" as="geometry">
            <mxPoint x="384" y="175" as="targetPoint" />
            <Array as="points">
              <mxPoint x="384" y="175" />
            </Array>
          </mxGeometry>
        </mxCell>
        <mxCell id="wDW_D3Paap-r5LXoeVgV-29" style="edgeStyle=orthogonalEdgeStyle;rounded=0;orthogonalLoop=1;jettySize=auto;html=1;exitX=0;exitY=0.701;exitDx=0;exitDy=0;entryX=1;entryY=0.5;entryDx=0;entryDy=0;exitPerimeter=0;endArrow=block;endFill=1;strokeWidth=2;" edge="1" parent="1" source="wDW_D3Paap-r5LXoeVgV-4" target="wDW_D3Paap-r5LXoeVgV-15">
          <mxGeometry relative="1" as="geometry">
            <Array as="points" />
          </mxGeometry>
        </mxCell>
        <mxCell id="wDW_D3Paap-r5LXoeVgV-30" style="edgeStyle=orthogonalEdgeStyle;rounded=0;orthogonalLoop=1;jettySize=auto;html=1;exitX=0.993;exitY=0.7;exitDx=0;exitDy=0;entryX=0;entryY=0.5;entryDx=0;entryDy=0;exitPerimeter=0;endArrow=block;endFill=1;strokeWidth=2;" edge="1" parent="1" source="wDW_D3Paap-r5LXoeVgV-4" target="wDW_D3Paap-r5LXoeVgV-19">
          <mxGeometry relative="1" as="geometry">
            <Array as="points" />
          </mxGeometry>
        </mxCell>
        <mxCell id="wDW_D3Paap-r5LXoeVgV-39" style="edgeStyle=orthogonalEdgeStyle;rounded=0;orthogonalLoop=1;jettySize=auto;html=1;entryX=1;entryY=0.5;entryDx=0;entryDy=0;strokeWidth=2;endArrow=block;endFill=1;strokeColor=#990000;" edge="1" parent="1" source="wDW_D3Paap-r5LXoeVgV-36" target="wDW_D3Paap-r5LXoeVgV-18">
          <mxGeometry relative="1" as="geometry" />
        </mxCell>
        <mxCell id="wDW_D3Paap-r5LXoeVgV-36" value="" style="image;aspect=fixed;html=1;points=[];align=center;fontSize=12;image=img/lib/azure2/other/Defender_Industrial_Robot.svg;" vertex="1" parent="1">
          <mxGeometry x="550" y="141" width="51.080000000000005" height="68" as="geometry" />
        </mxCell>
        <mxCell id="wDW_D3Paap-r5LXoeVgV-42" style="edgeStyle=orthogonalEdgeStyle;rounded=0;orthogonalLoop=1;jettySize=auto;html=1;entryX=0;entryY=0.5;entryDx=0;entryDy=0;endArrow=none;endFill=0;startArrow=block;startFill=1;strokeWidth=2;strokeColor=#990000;" edge="1" parent="1" source="wDW_D3Paap-r5LXoeVgV-37" target="wDW_D3Paap-r5LXoeVgV-15">
          <mxGeometry relative="1" as="geometry" />
        </mxCell>
        <mxCell id="wDW_D3Paap-r5LXoeVgV-37" value="" style="pointerEvents=1;shadow=0;dashed=0;html=1;strokeColor=none;fillColor=#006ec2;labelPosition=center;verticalLabelPosition=bottom;verticalAlign=top;align=center;outlineConnect=0;shape=mxgraph.veeam.monitor;" vertex="1" parent="1">
          <mxGeometry x="50" y="285.2" width="63.2" height="59.6" as="geometry" />
        </mxCell>
        <mxCell id="wDW_D3Paap-r5LXoeVgV-38" style="edgeStyle=orthogonalEdgeStyle;rounded=0;orthogonalLoop=1;jettySize=auto;html=1;exitX=1;exitY=0.5;exitDx=0;exitDy=0;entryX=0.587;entryY=1.029;entryDx=0;entryDy=0;entryPerimeter=0;strokeWidth=2;endArrow=block;endFill=1;strokeColor=#990000;" edge="1" parent="1" source="wDW_D3Paap-r5LXoeVgV-19" target="wDW_D3Paap-r5LXoeVgV-36">
          <mxGeometry relative="1" as="geometry" />
        </mxCell>
        <mxCell id="wDW_D3Paap-r5LXoeVgV-40" value="" style="verticalLabelPosition=bottom;html=1;verticalAlign=top;align=center;strokeColor=none;fillColor=#006ec2;shape=mxgraph.azure.server_rack;" vertex="1" parent="1">
          <mxGeometry x="551.08" y="440" width="50" height="50" as="geometry" />
        </mxCell>
        <mxCell id="wDW_D3Paap-r5LXoeVgV-41" style="edgeStyle=orthogonalEdgeStyle;rounded=0;orthogonalLoop=1;jettySize=auto;html=1;exitX=1;exitY=0.5;exitDx=0;exitDy=0;entryX=0;entryY=0.5;entryDx=0;entryDy=0;entryPerimeter=0;endArrow=block;endFill=1;startArrow=block;startFill=1;strokeWidth=2;strokeColor=#009900;" edge="1" parent="1" source="wDW_D3Paap-r5LXoeVgV-21" target="wDW_D3Paap-r5LXoeVgV-40">
          <mxGeometry relative="1" as="geometry" />
        </mxCell>
        <mxCell id="wDW_D3Paap-r5LXoeVgV-44" value="" style="edgeStyle=orthogonalEdgeStyle;rounded=0;orthogonalLoop=1;jettySize=auto;html=1;startArrow=block;startFill=1;strokeWidth=2;endArrow=block;endFill=1;strokeColor=#009900;" edge="1" parent="1" source="wDW_D3Paap-r5LXoeVgV-43" target="wDW_D3Paap-r5LXoeVgV-22">
          <mxGeometry relative="1" as="geometry" />
        </mxCell>
        <mxCell id="wDW_D3Paap-r5LXoeVgV-43" value="" style="sketch=0;pointerEvents=1;shadow=0;dashed=0;html=1;strokeColor=none;fillColor=#006ec2;labelPosition=center;verticalLabelPosition=bottom;verticalAlign=top;outlineConnect=0;align=center;shape=mxgraph.office.services.user_services;" vertex="1" parent="1">
          <mxGeometry x="60" y="438.40000000000003" width="53.2" height="53.2" as="geometry" />
        </mxCell>
        <mxCell id="wDW_D3Paap-r5LXoeVgV-50" value="" style="sketch=0;points=[[0,0,0],[0.25,0,0],[0.5,0,0],[0.75,0,0],[1,0,0],[0,1,0],[0.25,1,0],[0.5,1,0],[0.75,1,0],[1,1,0],[0,0.25,0],[0,0.5,0],[0,0.75,0],[1,0.25,0],[1,0.5,0],[1,0.75,0]];outlineConnect=0;fontColor=#232F3E;fillColor=none;strokeColor=#006ec2;verticalLabelPosition=bottom;verticalAlign=top;align=center;html=1;fontSize=12;fontStyle=0;aspect=fixed;shape=mxgraph.aws4.resourceIcon;resIcon=mxgraph.aws4.robotics;strokeWidth=1;" vertex="1" parent="1">
          <mxGeometry x="42.1" y="135.5" width="79" height="79" as="geometry" />
        </mxCell>
        <mxCell id="wDW_D3Paap-r5LXoeVgV-51" value="" style="sketch=0;aspect=fixed;pointerEvents=1;shadow=0;dashed=0;html=1;strokeColor=none;labelPosition=center;verticalLabelPosition=bottom;verticalAlign=top;align=center;fillColor=#000000;shape=mxgraph.mscae.enterprise.wireless_connection;rotation=-180;strokeWidth=1;" vertex="1" parent="1">
          <mxGeometry x="140.08" y="156" width="31.92" height="38" as="geometry" />
        </mxCell>
        <mxCell id="wDW_D3Paap-r5LXoeVgV-54" value="Wireless Communication" style="text;html=1;align=left;verticalAlign=middle;whiteSpace=wrap;rounded=0;" vertex="1" parent="1">
          <mxGeometry x="121.10000000000001" y="620" width="86.8" height="30" as="geometry" />
        </mxCell>
        <mxCell id="wDW_D3Paap-r5LXoeVgV-59" value="" style="sketch=0;aspect=fixed;pointerEvents=1;shadow=0;dashed=0;html=1;strokeColor=none;labelPosition=center;verticalLabelPosition=bottom;verticalAlign=top;align=center;fillColor=#000000;shape=mxgraph.mscae.enterprise.wireless_connection;rotation=-180;strokeWidth=1;" vertex="1" parent="1">
          <mxGeometry x="70.64000000000001" y="616" width="31.92" height="38" as="geometry" />
        </mxCell>
        <mxCell id="wDW_D3Paap-r5LXoeVgV-60" value="Wired Communication" style="text;html=1;align=left;verticalAlign=middle;whiteSpace=wrap;rounded=0;" vertex="1" parent="1">
          <mxGeometry x="121.10000000000002" y="680" width="86.8" height="30" as="geometry" />
        </mxCell>
        <mxCell id="wDW_D3Paap-r5LXoeVgV-61" value="" style="edgeStyle=orthogonalEdgeStyle;rounded=0;orthogonalLoop=1;jettySize=auto;html=1;startArrow=block;startFill=1;strokeWidth=2;endArrow=block;endFill=1;strokeColor=#009900;" edge="1" parent="1">
          <mxGeometry relative="1" as="geometry">
            <mxPoint x="65" y="694.75" as="sourcePoint" />
            <mxPoint x="108.2" y="694.66" as="targetPoint" />
            <Array as="points">
              <mxPoint x="87" y="695" />
            </Array>
          </mxGeometry>
        </mxCell>
        <mxCell id="wDW_D3Paap-r5LXoeVgV-62" value="Digital/Analog Communication" style="text;html=1;align=left;verticalAlign=middle;whiteSpace=wrap;rounded=0;" vertex="1" parent="1">
          <mxGeometry x="319.65000000000003" y="620" width="86.8" height="30" as="geometry" />
        </mxCell>
        <mxCell id="wDW_D3Paap-r5LXoeVgV-63" value="" style="edgeStyle=orthogonalEdgeStyle;rounded=0;orthogonalLoop=1;jettySize=auto;html=1;startArrow=block;startFill=1;strokeWidth=2;endArrow=block;endFill=1;strokeColor=#990000;" edge="1" parent="1">
          <mxGeometry relative="1" as="geometry">
            <mxPoint x="263.55" y="634.75" as="sourcePoint" />
            <mxPoint x="306.75" y="634.66" as="targetPoint" />
            <Array as="points">
              <mxPoint x="290" y="635" />
            </Array>
          </mxGeometry>
        </mxCell>
        <mxCell id="wDW_D3Paap-r5LXoeVgV-64" value="Controller&#39;s Internal Communication" style="text;html=1;align=left;verticalAlign=middle;whiteSpace=wrap;rounded=0;" vertex="1" parent="1">
          <mxGeometry x="319.65" y="680" width="110.35" height="30" as="geometry" />
        </mxCell>
        <mxCell id="wDW_D3Paap-r5LXoeVgV-65" value="" style="edgeStyle=orthogonalEdgeStyle;rounded=0;orthogonalLoop=1;jettySize=auto;html=1;startArrow=block;startFill=1;strokeWidth=2;endArrow=block;endFill=1;strokeColor=#000000;" edge="1" parent="1">
          <mxGeometry relative="1" as="geometry">
            <mxPoint x="263.55" y="694.75" as="sourcePoint" />
            <mxPoint x="306.75" y="694.66" as="targetPoint" />
            <Array as="points">
              <mxPoint x="290" y="695" />
            </Array>
          </mxGeometry>
        </mxCell>
        <mxCell id="wDW_D3Paap-r5LXoeVgV-66" value="Power Supply" style="text;html=1;align=left;verticalAlign=middle;whiteSpace=wrap;rounded=0;" vertex="1" parent="1">
          <mxGeometry x="506.1" y="620" width="86.8" height="30" as="geometry" />
        </mxCell>
        <mxCell id="wDW_D3Paap-r5LXoeVgV-67" value="" style="edgeStyle=orthogonalEdgeStyle;rounded=0;orthogonalLoop=1;jettySize=auto;html=1;startArrow=block;startFill=1;strokeWidth=2;endArrow=block;endFill=1;strokeColor=#CC6600;" edge="1" parent="1">
          <mxGeometry relative="1" as="geometry">
            <mxPoint x="450" y="634.75" as="sourcePoint" />
            <mxPoint x="493.2" y="634.66" as="targetPoint" />
            <Array as="points">
              <mxPoint x="472" y="635" />
            </Array>
          </mxGeometry>
        </mxCell>
      </root>
    </mxGraphModel>
  </diagram>
</mxfile>
